<svg width="22" height="22" viewBox="0 0 22 22" fill="none" xmlns="http://www.w3.org/2000/svg">
<path d="M16 1H6C3.23858 1 1 3.23858 1 6V16C1 18.7614 3.23858 21 6 21H16C18.7614 21 21 18.7614 21 16V6C21 3.23858 18.7614 1 16 1Z" stroke="black" stroke-width="1.5" stroke-linecap="round" stroke-linejoin="round"/>
<path d="M15.0002 10.3703C15.1236 11.2025 14.9815 12.0525 14.594 12.7993C14.2065 13.5461 13.5933 14.1517 12.8418 14.53C12.0903 14.9082 11.2386 15.0399 10.408 14.9062C9.57732 14.7726 8.80996 14.3804 8.21503 13.7855C7.62011 13.1905 7.22793 12.4232 7.09426 11.5925C6.9606 10.7619 7.09226 9.9102 7.47052 9.15868C7.84878 8.40716 8.45438 7.79404 9.20118 7.40654C9.94798 7.01904 10.7979 6.87689 11.6302 7.0003C12.4791 7.12619 13.265 7.52176 13.8719 8.12861C14.4787 8.73545 14.8743 9.52138 15.0002 10.3703Z" stroke="black" stroke-width="1.5" stroke-linecap="round" stroke-linejoin="round"/>
<path d="M16.5 5.5H16.51" stroke="black" stroke-width="1.5" stroke-linecap="round" stroke-linejoin="round"/>
</svg>
